<svg width="87" height="20" viewBox="0 0 87 20" fill="none" xmlns="http://www.w3.org/2000/svg">
<path d="M9.38367 6.12C9.38367 6.70667 9.27034 7.24 9.04367 7.72C8.81701 8.18667 8.51034 8.59333 8.12367 8.94C7.73701 9.27333 7.28367 9.53333 6.76367 9.72C6.25701 9.90667 5.72367 10 5.16367 10C4.59034 10 4.05034 9.90667 3.54367 9.72C3.03701 9.53333 2.59034 9.27333 2.20367 8.94C1.81701 8.59333 1.51034 8.18667 1.28367 7.72C1.05701 7.24 0.943672 6.70667 0.943672 6.12C0.943672 5.54667 1.05701 5.02 1.28367 4.54C1.51034 4.06 1.81701 3.65333 2.20367 3.32C2.59034 2.98667 3.03701 2.72667 3.54367 2.54C4.06367 2.35333 4.60367 2.26 5.16367 2.26C5.65701 2.26 6.13034 2.33333 6.58367 2.48C7.05034 2.62667 7.47034 2.84 7.84367 3.12C8.21701 3.38667 8.53034 3.71333 8.78367 4.1C9.03701 4.47333 9.21034 4.9 9.30367 5.38C9.55701 5.39333 9.84367 5.4 10.1637 5.4C10.497 5.4 10.837 5.4 11.1837 5.4C11.5437 5.38667 11.9037 5.37333 12.2637 5.36C12.637 5.34667 12.9903 5.33333 13.3237 5.32V2.54C13.3237 2.3 13.197 2.08 12.9437 1.88C12.7037 1.68 12.337 1.48667 11.8437 1.3C11.737 1.24667 11.6437 1.2 11.5637 1.16C11.497 1.10667 11.4637 1.04667 11.4637 0.979999C11.4637 0.913332 11.5103 0.839999 11.6037 0.76C11.7103 0.68 11.8637 0.64 12.0637 0.64C12.157 0.64 12.3303 0.653333 12.5837 0.679999C12.837 0.706666 13.1037 0.746666 13.3837 0.799999C13.677 0.839999 13.9503 0.886666 14.2037 0.94C14.457 0.993333 14.6237 1.04 14.7037 1.08L14.6237 2.16V7.4C14.6237 7.61333 14.617 7.9 14.6037 8.26C14.6037 8.62 14.577 8.97333 14.5237 9.32C14.4703 9.66667 14.3837 9.96667 14.2637 10.22C14.157 10.4733 13.997 10.6 13.7837 10.6C13.477 10.6 13.3237 10.0333 13.3237 8.9V6.12C13.2303 6.12 13.097 6.12667 12.9237 6.14C12.7637 6.15333 12.5903 6.16667 12.4037 6.18C12.217 6.19333 12.0437 6.20667 11.8837 6.22C11.7237 6.23333 11.6037 6.24 11.5237 6.24C11.377 6.26667 11.2503 6.30667 11.1437 6.36C11.037 6.4 10.9103 6.47333 10.7637 6.58C10.617 6.58 10.4037 6.52667 10.1237 6.42C9.84367 6.3 9.59701 6.18 9.38367 6.06V6.12ZM14.6437 12.52V15.88C14.6437 16.0533 14.637 16.2867 14.6237 16.58C14.6237 16.8733 14.597 17.16 14.5437 17.44C14.4903 17.7333 14.4037 17.9867 14.2837 18.2C14.177 18.4133 14.017 18.52 13.8037 18.52C13.5637 18.52 13.417 18.2667 13.3637 17.76L7.70367 17.8C7.65034 18.0667 7.56367 18.3 7.44367 18.5C7.33701 18.7 7.18367 18.8 6.98367 18.8C6.67701 18.8 6.52367 18.3333 6.52367 17.4V13.26C6.52367 13.02 6.42367 12.8267 6.22367 12.68C6.03701 12.5333 5.69701 12.3667 5.20367 12.18C5.09701 12.1267 5.00367 12.08 4.92367 12.04C4.85701 11.9867 4.82367 11.9267 4.82367 11.86C4.82367 11.7933 4.87034 11.72 4.96367 11.64C5.07034 11.56 5.22367 11.52 5.42367 11.52C5.51701 11.52 5.67701 11.5267 5.90367 11.54C6.14367 11.5533 6.39034 11.5733 6.64367 11.6C6.91034 11.6267 7.15701 11.66 7.38367 11.7C7.62367 11.7267 7.79701 11.76 7.90367 11.8L7.82367 12.88V13.74L13.3437 13.72V12.9C13.3437 12.66 13.2503 12.4533 13.0637 12.28C12.8903 12.1067 12.557 11.9267 12.0637 11.74C11.957 11.6867 11.8637 11.64 11.7837 11.6C11.717 11.5467 11.6837 11.4867 11.6837 11.42C11.6837 11.3533 11.7303 11.28 11.8237 11.2C11.9303 11.12 12.0837 11.08 12.2837 11.08C12.377 11.08 12.537 11.0933 12.7637 11.12C13.0037 11.1333 13.2503 11.16 13.5037 11.2C13.7703 11.2267 14.017 11.2667 14.2437 11.32C14.4837 11.36 14.6437 11.4 14.7237 11.44L14.6437 12.52ZM7.98367 6.14C7.98367 5.72667 7.91701 5.34667 7.78367 5C7.65034 4.65333 7.45701 4.35333 7.20367 4.1C6.95034 3.84667 6.65034 3.65333 6.30367 3.52C5.95701 3.37333 5.57701 3.3 5.16367 3.3C4.73701 3.3 4.35034 3.37333 4.00367 3.52C3.65701 3.65333 3.35701 3.84667 3.10367 4.1C2.86367 4.34 2.67034 4.64 2.52367 5C2.39034 5.34667 2.32367 5.72667 2.32367 6.14C2.32367 6.55333 2.39034 6.93333 2.52367 7.28C2.67034 7.62667 2.87034 7.92667 3.12367 8.18C3.37701 8.43333 3.67701 8.63333 4.02367 8.78C4.37034 8.91333 4.75034 8.98 5.16367 8.98C5.57701 8.98 5.95034 8.90667 6.28367 8.76C6.63034 8.61333 6.93034 8.41333 7.18367 8.16C7.43701 7.90667 7.63034 7.60667 7.76367 7.26C7.91034 6.91333 7.98367 6.54 7.98367 6.14ZM7.82367 16.22C7.82367 16.3 7.82367 16.3933 7.82367 16.5C7.82367 16.62 7.81701 16.7533 7.80367 16.9H13.3437V14.6L7.82367 14.62V16.22ZM21.0821 15.52C20.8954 15.5067 20.6954 15.4733 20.4821 15.42C20.2688 15.3533 20.0554 15.28 19.8421 15.2C19.6288 15.1067 19.4221 15.0133 19.2221 14.92C19.0354 14.8133 18.8688 14.7067 18.7221 14.6C18.6288 14.5333 18.5554 14.46 18.5021 14.38C18.4621 14.2867 18.4421 14.2067 18.4421 14.14C18.4421 13.94 18.6554 13.8733 19.0821 13.94C19.4688 14.0067 19.8821 14.06 20.3221 14.1C20.7621 14.1267 21.2221 14.14 21.7021 14.14C22.5154 14.14 23.3021 14.14 24.0621 14.14C24.8354 14.1267 25.5821 14.1133 26.3021 14.1V11H23.6621C22.6088 11 22.0821 10.4733 22.0821 9.42V7.68C21.8954 7.36 21.5288 7.13333 20.9821 7C20.7288 6.94667 20.6021 6.84667 20.6021 6.7C20.6021 6.60667 20.6488 6.52667 20.7421 6.46C20.8488 6.39333 21.0088 6.36 21.2221 6.36C21.5821 6.36 21.9021 6.37333 22.1821 6.4C22.4754 6.41333 22.7288 6.44667 22.9421 6.5C22.9954 6.51333 23.0554 6.54 23.1221 6.58C23.2021 6.60667 23.2754 6.63333 23.3421 6.66C23.7688 6.64667 24.2688 6.63333 24.8421 6.62C25.4288 6.60667 26.0221 6.6 26.6221 6.6C27.2221 6.58667 27.8088 6.57333 28.3821 6.56C28.9554 6.54667 29.4554 6.53333 29.8821 6.52C29.9621 6.52 30.0354 6.48 30.1021 6.4V3.56C29.8488 3.56 29.4621 3.56667 28.9421 3.58C28.4221 3.58 27.8754 3.58667 27.3021 3.6C26.7288 3.61333 26.1754 3.63333 25.6421 3.66C25.1221 3.67333 24.7354 3.69333 24.4821 3.72C24.1754 3.74667 23.8888 3.80667 23.6221 3.9C23.3688 3.98 23.1221 4.09333 22.8821 4.24C22.6954 4.18667 22.5021 4.12 22.3021 4.04C22.1021 3.94667 21.9088 3.85333 21.7221 3.76C21.5488 3.66667 21.3888 3.58 21.2421 3.5C21.1088 3.40667 21.0088 3.32667 20.9421 3.26C20.8621 3.18 20.8221 3.08667 20.8221 2.98C20.8221 2.79333 20.9954 2.73333 21.3421 2.8C21.6888 2.85333 22.0221 2.88667 22.3421 2.9C22.6621 2.9 22.9754 2.9 23.2821 2.9C23.5488 2.9 23.9354 2.9 24.4421 2.9C24.9488 2.9 25.4888 2.89333 26.0621 2.88C26.6354 2.86667 27.1954 2.86 27.7421 2.86C28.3021 2.84667 28.7688 2.82667 29.1421 2.8C29.3954 2.78667 29.6088 2.74667 29.7821 2.68C29.9688 2.61333 30.0954 2.56 30.1621 2.52C30.3354 2.52 30.5354 2.53333 30.7621 2.56C31.0021 2.57333 31.1954 2.59333 31.3421 2.62C31.5688 2.67333 31.6888 2.75333 31.7021 2.86C31.7154 2.96667 31.7088 3.08 31.6821 3.2C31.6554 3.38667 31.6154 3.56 31.5621 3.72C31.5221 3.88 31.4754 4.08667 31.4221 4.34C31.3821 4.68667 31.3354 5.02667 31.2821 5.36C31.2421 5.68 31.2021 6.01333 31.1621 6.36C31.4154 6.4 31.5754 6.45333 31.6421 6.52C31.7221 6.58667 31.7621 6.67333 31.7621 6.78C31.7621 7.1 31.5421 7.26 31.1021 7.26L23.4221 7.42V9.7C23.4221 10.0467 23.6021 10.22 23.9621 10.22L28.8421 10.2C29.2288 10.2 29.5488 10.1467 29.8021 10.04C30.0688 9.92 30.2621 9.80667 30.3821 9.7C30.7288 9.72667 31.0221 9.75333 31.2621 9.78C31.5154 9.80667 31.7554 9.84667 31.9821 9.9C32.3288 9.98 32.5021 10.1733 32.5021 10.48C32.5021 10.8133 32.2621 10.98 31.7821 10.98L27.6221 11V14.06C28.1688 14.0467 28.6954 14.0333 29.2021 14.02C29.7221 13.9933 30.2354 13.9667 30.7421 13.94C31.2488 13.9133 31.6554 13.8667 31.9621 13.8C32.2688 13.72 32.5421 13.6067 32.7821 13.46C33.0488 13.4733 33.3488 13.5 33.6821 13.54C34.0288 13.58 34.3554 13.6333 34.6621 13.7C35.1688 13.8067 35.4221 14.0133 35.4221 14.32C35.4221 14.7333 35.1688 14.94 34.6621 14.94C34.5288 14.94 34.3088 14.9333 34.0021 14.92C33.7088 14.8933 33.3488 14.86 32.9221 14.82C32.7488 14.8067 32.4554 14.8 32.0421 14.8C31.6288 14.7867 31.1288 14.78 30.5421 14.78C29.2354 14.8067 27.9288 14.84 26.6221 14.88C25.3154 14.92 23.9954 14.9733 22.6621 15.04C22.3954 15.0667 22.1221 15.12 21.8421 15.2C21.5754 15.2667 21.3221 15.3733 21.0821 15.52ZM39.4805 15.32C39.2939 15.3067 39.0939 15.2733 38.8805 15.22C38.6672 15.1533 38.4539 15.08 38.2405 15C38.0272 14.9067 37.8205 14.8133 37.6205 14.72C37.4339 14.6133 37.2672 14.5067 37.1205 14.4C37.0272 14.3333 36.9539 14.26 36.9005 14.18C36.8605 14.0867 36.8405 14.0067 36.8405 13.94C36.8405 13.74 37.0539 13.6733 37.4805 13.74C37.8672 13.8067 38.2805 13.86 38.7205 13.9C39.1605 13.9267 39.6205 13.94 40.1005 13.94C41.8072 13.94 43.4005 13.9267 44.8805 13.9C46.3739 13.86 47.7939 13.8067 49.1405 13.74C49.6472 13.7133 50.0539 13.6667 50.3605 13.6C50.6672 13.52 50.9405 13.4067 51.1805 13.26C51.4472 13.2733 51.7472 13.3 52.0805 13.34C52.4272 13.38 52.7539 13.4333 53.0605 13.5C53.5672 13.6067 53.8205 13.8133 53.8205 14.12C53.8205 14.5333 53.5672 14.74 53.0605 14.74C52.9272 14.74 52.7072 14.7333 52.4005 14.72C52.1072 14.6933 51.7472 14.66 51.3205 14.62C51.1472 14.6067 50.8539 14.6 50.4405 14.6C50.0272 14.5867 49.5272 14.58 48.9405 14.58C47.6339 14.6067 46.3272 14.64 45.0205 14.68C43.7139 14.72 42.3939 14.7733 41.0605 14.84C40.7939 14.8667 40.5205 14.92 40.2405 15C39.9739 15.0667 39.7205 15.1733 39.4805 15.32ZM41.8605 9.1C41.8605 9.51333 42.0339 9.70667 42.3805 9.68L47.4605 9.56C47.7672 9.53333 48.0472 9.47333 48.3005 9.38C48.5539 9.28667 48.7139 9.19333 48.7805 9.1C49.0472 9.1 49.3339 9.11333 49.6405 9.14C49.9605 9.15333 50.2539 9.18667 50.5205 9.24C50.9205 9.30667 51.1205 9.48667 51.1205 9.78C51.1205 10.1267 50.8805 10.3 50.4005 10.3L42.0205 10.42C41.0072 10.4467 40.5005 9.88 40.5005 8.72V5.04C40.5005 4.72 39.9939 4.43333 38.9805 4.18C38.7139 4.11333 38.5805 4.01333 38.5805 3.88C38.5805 3.77333 38.6272 3.67333 38.7205 3.58C38.8139 3.48667 38.9539 3.43333 39.1405 3.42C39.3805 3.40667 39.6339 3.40667 39.9005 3.42C40.1672 3.43333 40.4205 3.45333 40.6605 3.48C40.9005 3.50667 41.1205 3.54 41.3205 3.58C41.5205 3.62 41.6739 3.66 41.7805 3.7C42.2072 3.68667 42.6539 3.68 43.1205 3.68C43.6005 3.66667 44.0805 3.65333 44.5605 3.64C45.0539 3.62667 45.5339 3.62 46.0005 3.62C46.4672 3.60667 46.9139 3.59333 47.3405 3.58C47.6205 3.58 47.8739 3.54 48.1005 3.46C48.3272 3.38 48.5139 3.26667 48.6605 3.12C48.9272 3.12 49.2072 3.13333 49.5005 3.16C49.7939 3.17333 50.0739 3.20667 50.3405 3.26C50.7405 3.32667 50.9405 3.51333 50.9405 3.82C50.9405 4.16667 50.7005 4.34 50.2205 4.34C48.8872 4.35333 47.4939 4.36667 46.0405 4.38C44.5872 4.39333 43.1939 4.41333 41.8605 4.44V9.1ZM65.2045 15.76C65.2045 15.32 65.2911 14.9133 65.4645 14.54C65.6511 14.1667 65.9045 13.84 66.2245 13.56C66.5445 13.2667 66.9245 13.0333 67.3645 12.86C67.8045 12.6733 68.2845 12.5533 68.8045 12.5V10.02C68.1245 10.0467 67.4578 10.0733 66.8045 10.1C66.1645 10.1267 65.5445 10.1533 64.9445 10.18C64.6778 10.2067 64.4111 10.26 64.1445 10.34C63.8778 10.4067 63.6311 10.5133 63.4045 10.66C63.2311 10.6467 63.0378 10.6133 62.8245 10.56C62.6245 10.4933 62.4178 10.42 62.2045 10.34C62.0045 10.26 61.8045 10.1733 61.6045 10.08C61.4178 9.97333 61.2578 9.86667 61.1245 9.76C61.0311 9.69333 60.9578 9.62 60.9045 9.54C60.8645 9.46 60.8445 9.38667 60.8445 9.32C60.8445 9.12 61.0511 9.05333 61.4645 9.12C61.8511 9.18667 62.2511 9.24 62.6645 9.28C63.0911 9.30667 63.5378 9.32 64.0045 9.32C65.6711 9.32 67.3045 9.3 68.9045 9.26C70.5178 9.22 71.9778 9.16667 73.2845 9.1C73.7778 9.07333 74.1711 9.03333 74.4645 8.98C74.7711 8.91333 75.0378 8.80667 75.2645 8.66C75.5311 8.67333 75.8245 8.7 76.1445 8.74C76.4778 8.78 76.7911 8.83333 77.0845 8.9C77.5778 8.99333 77.8245 9.18667 77.8245 9.48C77.8245 9.85333 77.5778 10.04 77.0845 10.04C76.9645 10.04 76.7311 10.0333 76.3845 10.02C76.0511 9.99333 75.7245 9.96667 75.4045 9.94C75.2045 9.92667 74.9111 9.92 74.5245 9.92C74.1378 9.92 73.6645 9.92 73.1045 9.92C72.6378 9.93333 72.1511 9.94667 71.6445 9.96C71.1511 9.96 70.6511 9.96667 70.1445 9.98V12.52C70.6378 12.5867 71.0911 12.7133 71.5045 12.9C71.9178 13.0867 72.2778 13.3267 72.5845 13.62C72.8911 13.9 73.1311 14.2267 73.3045 14.6C73.4778 14.96 73.5645 15.3467 73.5645 15.76C73.5645 16.24 73.4578 16.68 73.2445 17.08C73.0311 17.48 72.7311 17.8267 72.3445 18.12C71.9711 18.4133 71.5311 18.64 71.0245 18.8C70.5178 18.9733 69.9711 19.06 69.3845 19.06C68.7978 19.06 68.2511 18.9733 67.7445 18.8C67.2378 18.64 66.7911 18.4133 66.4045 18.12C66.0311 17.8267 65.7378 17.48 65.5245 17.08C65.3111 16.68 65.2045 16.24 65.2045 15.76ZM62.9645 8.28C62.8045 8.32 62.6711 8.32 62.5645 8.28C62.4578 8.22667 62.3845 8.16 62.3445 8.08C62.3045 7.98667 62.2978 7.89333 62.3245 7.8C62.3645 7.70667 62.4578 7.64 62.6045 7.6C63.5778 7.29333 64.5045 6.94667 65.3845 6.56C66.2645 6.16 67.0911 5.74667 67.8645 5.32C68.6378 4.88 69.3445 4.43333 69.9845 3.98C70.6378 3.52667 71.2178 3.08 71.7245 2.64C71.4711 2.64 71.1378 2.64667 70.7245 2.66C70.3111 2.66 69.8778 2.66667 69.4245 2.68C68.9845 2.69333 68.5511 2.71333 68.1245 2.74C67.7111 2.75333 67.3778 2.77333 67.1245 2.8C66.8178 2.82667 66.5378 2.88667 66.2845 2.98C66.0311 3.06 65.7845 3.16667 65.5445 3.3C65.3578 3.26 65.1645 3.2 64.9645 3.12C64.7645 3.02667 64.5711 2.93333 64.3845 2.84C64.2111 2.74667 64.0511 2.66 63.9045 2.58C63.7711 2.48667 63.6711 2.41333 63.6045 2.36C63.5245 2.28 63.4845 2.19333 63.4845 2.1C63.4845 1.91333 63.6578 1.85333 64.0045 1.92C64.3511 1.97333 64.6845 2.00667 65.0045 2.02C65.3245 2.02 65.6378 2.02 65.9445 2.02C66.2111 2.02 66.5778 2.02 67.0445 2.02C67.5245 2.00667 68.0311 2 68.5645 2C69.0978 1.98667 69.6245 1.97333 70.1445 1.96C70.6778 1.94667 71.1311 1.92667 71.5045 1.9C71.7445 1.88667 71.9578 1.84667 72.1445 1.78C72.3445 1.71333 72.4778 1.66 72.5445 1.62C72.6778 1.62 72.8778 1.63333 73.1445 1.66C73.4111 1.67333 73.6511 1.69333 73.8645 1.72C74.0511 1.74667 74.1778 1.8 74.2445 1.88C74.3111 1.94667 74.3445 2.03333 74.3445 2.14C74.3445 2.31333 74.2245 2.49333 73.9845 2.68C73.8911 2.74667 73.8045 2.81333 73.7245 2.88C73.6445 2.94667 73.5778 3 73.5245 3.04C73.0978 3.4 72.6311 3.76 72.1245 4.12C71.6178 4.46667 71.0845 4.80667 70.5245 5.14C70.8045 5.23333 71.1045 5.32667 71.4245 5.42C71.7445 5.5 71.9978 5.56 72.1845 5.6C72.3311 5.64 72.4778 5.66667 72.6245 5.68C72.7711 5.68 72.8978 5.66667 73.0045 5.64C73.2711 5.6 73.5178 5.61333 73.7445 5.68C73.8911 5.73333 74.0511 5.8 74.2245 5.88C74.4111 5.94667 74.5911 6.02667 74.7645 6.12C74.9378 6.2 75.0978 6.28667 75.2445 6.38C75.4045 6.46 75.5245 6.52667 75.6045 6.58C75.8311 6.72667 76.0045 6.88667 76.1245 7.06C76.2045 7.16667 76.2245 7.26667 76.1845 7.36C76.1578 7.45333 76.0911 7.52667 75.9845 7.58C75.9045 7.60667 75.7845 7.62 75.6245 7.62C75.4645 7.60667 75.2311 7.54667 74.9245 7.44L69.6245 5.64C68.6245 6.2 67.5578 6.70667 66.4245 7.16C65.3045 7.6 64.1511 7.97333 62.9645 8.28ZM66.5645 15.72C66.5645 16.4267 66.8311 16.9933 67.3645 17.42C67.9111 17.8467 68.5911 18.06 69.4045 18.06C69.8045 18.06 70.1778 18 70.5245 17.88C70.8845 17.7733 71.1911 17.6133 71.4445 17.4C71.6978 17.2 71.8978 16.9533 72.0445 16.66C72.1911 16.38 72.2645 16.0667 72.2645 15.72C72.2645 15.3733 72.1911 15.06 72.0445 14.78C71.8978 14.4867 71.6978 14.24 71.4445 14.04C71.1911 13.8267 70.8845 13.6667 70.5245 13.56C70.1778 13.44 69.8045 13.38 69.4045 13.38C68.5911 13.38 67.9111 13.5933 67.3645 14.02C66.8311 14.4467 66.5645 15.0133 66.5645 15.72ZM78.8029 16.78C78.8029 16.4733 78.9029 16.2133 79.1029 16C79.3162 15.8 79.5629 15.7 79.8429 15.7C80.1496 15.7 80.4029 15.8 80.6029 16C80.8162 16.2133 80.9229 16.4733 80.9229 16.78C80.9229 17.06 80.8162 17.3 80.6029 17.5C80.4029 17.7133 80.1496 17.82 79.8429 17.82C79.5629 17.82 79.3162 17.7133 79.1029 17.5C78.9029 17.3 78.8029 17.06 78.8029 16.78ZM83.9396 16.78C83.9396 16.4733 84.0396 16.2133 84.2396 16C84.4529 15.8 84.6996 15.7 84.9796 15.7C85.2863 15.7 85.5396 15.8 85.7396 16C85.9529 16.2133 86.0596 16.4733 86.0596 16.78C86.0596 17.06 85.9529 17.3 85.7396 17.5C85.5396 17.7133 85.2863 17.82 84.9796 17.82C84.6996 17.82 84.4529 17.7133 84.2396 17.5C84.0396 17.3 83.9396 17.06 83.9396 16.78Z" fill="black"/>
</svg>
